<svg xmlns="http://www.w3.org/2000/svg" width="48" height="48"><defs><style>.cls-4{fill:#474c54}</style></defs><g id="_14-File-Check" data-name="14-File-Check"><path d="M47 13h-8a4 4 0 0 1-4-4V1z" style="fill:#d0d7df"/><path d="M47 13v30a4 4 0 0 1-4 4H9c-4 0-4-4-4-4V5a4 4 0 0 1 4-4h26v8a4 4 0 0 0 4 4h8z" style="fill:#f1f2f2"/><circle cx="14" cy="34" r="13" style="fill:#fed049"/><path class="cls-4" d="m47.707 12.293-12-12a.975.975 0 0 0-.323-.216A.988.988 0 0 0 35 0H9a5.006 5.006 0 0 0-5 5v13a1 1 0 0 0 2 0V5a3 3 0 0 1 3-3h25v7a5.006 5.006 0 0 0 5 5h2a1 1 0 0 0 0-2h-2a3 3 0 0 1-3-3V3.414l10 10V43a3 3 0 0 1-3 3H27a1 1 0 0 0 0 2h16a5.006 5.006 0 0 0 5-5V13a1 1 0 0 0-.293-.707z"/><path class="cls-4" d="M14 20a14 14 0 1 0 14 14 14.015 14.015 0 0 0-14-14zm0 26a12 12 0 1 1 12-12 12.013 12.013 0 0 1-12 12z"/><path class="cls-4" d="M20.293 29.293 11 38.586l-2.293-2.293a1 1 0 1 0-1.414 1.414l3 3a1 1 0 0 0 1.414 0l10-10a1 1 0 0 0-1.414-1.414z"/></g></svg>